<?xml version="1.0" standalone="no"?>
<!DOCTYPE svg PUBLIC "-//W3C//DTD SVG 20010904//EN"
 "http://www.w3.org/TR/2001/REC-SVG-20010904/DTD/svg10.dtd">
<svg version="1.0" xmlns="http://www.w3.org/2000/svg"
 width="512.000000pt" height="512.000000pt" viewBox="0 0 512.000000 512.000000"
 preserveAspectRatio="xMidYMid meet">
<metadata>
Created by potrace 1.11, written by Peter Selinger 2001-2013
</metadata>
<g transform="translate(0.000000,512.000000) scale(0.100000,-0.100000)"
fill="#000000" stroke="none">
<path d="M3780 4720 l-385 -386 -50 18 c-27 11 -58 21 -67 23 -9 2 -26 9 -37
15 -12 6 -21 8 -21 5 0 -3 -8 -1 -17 4 -10 5 -31 11 -48 14 -16 3 -45 10 -63
16 -18 5 -36 10 -40 10 -8 1 -68 12 -97 18 -31 6 -96 14 -135 16 -19 1 -39 5
-45 8 -9 5 -400 5 -400 -1 0 -1 -19 -4 -42 -6 -55 -4 -220 -32 -288 -48 -5 -2
-30 -9 -55 -16 -25 -7 -52 -14 -60 -15 -8 -2 -35 -10 -60 -20 -25 -9 -52 -18
-60 -20 -8 -2 -24 -7 -35 -10 -16 -4 -95 70 -399 375 -209 209 -382 380 -385
380 -3 0 -7 -21 -8 -48 -2 -59 -13 -267 -18 -347 -2 -33 -7 -118 -10 -190 -8
-172 -13 -260 -15 -260 -2 0 -12 -231 -14 -317 0 -38 -3 -68 -6 -68 -3 0 -4
-21 -4 -47 2 -61 -9 -82 -86 -162 -8 -9 -37 -48 -65 -86 -27 -39 -53 -74 -58
-80 -54 -66 -211 -376 -248 -490 -12 -38 -27 -76 -32 -82 -5 -7 -7 -13 -3 -13
3 0 0 -16 -8 -35 -9 -20 -15 -38 -16 -40 0 -3 0 -6 -1 -7 0 -2 -2 -12 -4 -22
-2 -11 -11 -51 -19 -90 -53 -245 -63 -480 -31 -786 3 -30 8 -61 10 -69 3 -8 8
-30 11 -50 5 -32 20 -99 28 -126 1 -5 6 -28 11 -50 4 -22 10 -44 14 -50 3 -5
6 -14 7 -20 6 -34 71 -199 111 -282 52 -109 142 -266 155 -271 4 -2 8 -8 8
-14 0 -13 134 -191 190 -252 139 -149 349 -336 379 -336 5 0 11 -3 13 -7 4
-11 67 -55 100 -72 16 -8 28 -18 28 -23 0 -4 9 -8 20 -8 11 0 20 -4 20 -8 0
-19 384 -188 470 -207 8 -2 15 -4 15 -6 0 -1 9 -3 20 -5 11 -1 47 -10 80 -19
159 -44 257 -53 565 -50 162 1 309 5 325 9 17 3 55 11 85 17 51 10 202 46 225
53 6 2 13 3 16 2 3 0 13 5 22 12 9 8 21 11 27 7 5 -3 10 -1 10 4 0 6 11 11 24
11 14 0 27 4 30 9 3 5 17 11 30 15 13 3 52 19 87 34 35 16 69 30 74 31 6 1 17
8 25 15 8 7 33 21 55 31 22 10 52 26 68 37 15 11 27 17 27 13 0 -3 10 3 22 15
12 11 26 20 30 20 5 0 14 4 21 10 7 5 49 37 94 69 78 57 95 71 167 133 17 15
35 28 39 28 5 0 5 5 2 10 -3 6 -2 10 4 10 8 0 57 48 171 169 27 29 102 126
135 175 11 16 28 41 37 55 10 14 21 33 25 41 3 8 9 17 12 20 8 7 29 41 43 70
7 14 15 27 18 30 12 11 90 180 118 255 6 17 17 44 23 60 14 35 20 55 21 73 1
6 4 12 8 12 6 0 10 16 11 53 0 9 4 17 8 17 4 0 13 26 19 58 6 31 14 68 17 82
18 81 34 193 41 290 9 112 9 290 1 290 -4 0 -3 9 3 20 6 11 7 20 2 20 -5 0 -8
20 -7 46 1 25 -2 47 -7 50 -5 3 -6 9 -3 14 3 5 -1 46 -9 90 -9 45 -15 84 -14
88 1 4 -1 14 -4 22 -9 27 -51 195 -51 208 0 6 -4 12 -9 12 -4 0 -7 3 -7 8 1 4
0 9 -1 12 -1 3 -3 12 -5 20 -4 16 -44 123 -69 182 -9 21 -16 40 -17 43 -3 28
-200 352 -223 367 -6 4 -7 8 -1 8 6 0 6 3 0 8 -6 4 -26 27 -45 52 -19 25 -49
61 -67 80 -18 19 -33 40 -34 45 0 6 -2 24 -4 40 -4 38 -18 307 -19 363 0 23
-3 42 -6 42 -3 0 -5 39 -6 88 -2 162 -9 257 -19 264 -6 5 -6 8 1 8 7 0 10 12
7 28 -4 31 -9 109 -18 277 -9 184 -14 247 -17 249 -2 1 -176 -172 -388 -384z"/>
</g>
</svg>
